<svg width="24" height="24" viewBox="0 0 24 24" fill="none" xmlns="http://www.w3.org/2000/svg">
<g clip-path="url(#clip0_46_6)">
<path d="M13.2989 3.148L21.9329 18.102C22.0646 18.33 22.1339 18.5887 22.1339 18.852C22.1339 19.1153 22.0646 19.374 21.9329 19.602C21.8013 19.83 21.6119 20.0194 21.3839 20.151C21.1559 20.2827 20.8972 20.352 20.6339 20.352H3.36593C3.10263 20.352 2.84397 20.2827 2.61594 20.151C2.38792 20.0194 2.19857 19.83 2.06692 19.602C1.93527 19.374 1.86597 19.1153 1.86597 18.852C1.86597 18.5887 1.93528 18.33 2.06693 18.102L10.7009 3.148C11.2779 2.148 12.7209 2.148 13.2989 3.148ZM11.9999 15C11.7347 15 11.4804 15.1054 11.2928 15.2929C11.1053 15.4804 10.9999 15.7348 10.9999 16C10.9999 16.2652 11.1053 16.5196 11.2928 16.7071C11.4804 16.8946 11.7347 17 11.9999 17C12.2651 17 12.5195 16.8946 12.707 16.7071C12.8946 16.5196 12.9999 16.2652 12.9999 16C12.9999 15.7348 12.8946 15.4804 12.707 15.2929C12.5195 15.1054 12.2651 15 11.9999 15ZM11.9999 8C11.755 8.00003 11.5186 8.08996 11.3356 8.25272C11.1525 8.41547 11.0356 8.63975 11.0069 8.883L10.9999 9V13C11.0002 13.2549 11.0978 13.5 11.2728 13.6854C11.4477 13.8707 11.6869 13.9822 11.9413 13.9972C12.1958 14.0121 12.4463 13.9293 12.6418 13.7657C12.8372 13.6021 12.9628 13.3701 12.9929 13.117L12.9999 13V9C12.9999 8.73478 12.8946 8.48043 12.707 8.29289C12.5195 8.10536 12.2651 8 11.9999 8Z" fill="#F87171"/>
</g>
<defs>
<clipPath id="clip0_46_6">
<rect width="24" height="24" fill="white"/>
</clipPath>
</defs>
</svg>
