<svg width="26" height="26" viewBox="0 0 26 26" fill="none" xmlns="http://www.w3.org/2000/svg">
<path d="M16.0285 5.91333V7.93241M16.0285 11.9706V13.9896M16.0285 18.0278V20.0469M5.93314 5.91333C4.81804 5.91333 3.91406 6.8173 3.91406 7.93241V10.961C5.02917 10.961 5.93314 11.865 5.93314 12.9801C5.93314 14.0952 5.02917 14.9992 3.91406 14.9992V18.0278C3.91406 19.1429 4.81804 20.0469 5.93314 20.0469H20.0667C21.1818 20.0469 22.0858 19.1429 22.0858 18.0278V14.9992C20.9707 14.9992 20.0667 14.0952 20.0667 12.9801C20.0667 11.865 20.9707 10.961 22.0858 10.961V7.93241C22.0858 6.8173 21.1818 5.91333 20.0667 5.91333H5.93314Z" stroke="white" stroke-width="2.16763" stroke-linecap="round" stroke-linejoin="round"/>
</svg>
