<svg xmlns="http://www.w3.org/2000/svg" width="25" height="24" viewBox="0 0 25 24" fill="none">
  <path d="M4 9V14C4 17.7712 4 19.6569 5.17157 20.8284C6.34315 22 8.22876 22 12 22H13C16.7712 22 18.6569 22 19.8284 20.8284C21 19.6569 21 17.7712 21 14V10C21 6.22876 21 4.34315 19.8284 3.17157C18.6569 2 16.7712 2 13 2H7.26429" stroke="white" stroke-width="1.5" stroke-linecap="round" stroke-linejoin="round"/>
  <path d="M14 17H18" stroke="white" stroke-width="1.5" stroke-linecap="round" stroke-linejoin="round"/>
  <path d="M14 7H18" stroke="white" stroke-width="1.5" stroke-linecap="round" stroke-linejoin="round"/>
  <path d="M14 12H18" stroke="white" stroke-width="1.5" stroke-linecap="round" stroke-linejoin="round"/>
  <path d="M7 16.5C7 16.5 7.96758 16.7672 8.5 18C8.5 18 9.5 15 11.5 14" stroke="white" stroke-width="1.5" stroke-linecap="round" stroke-linejoin="round"/>
  <path d="M7 8.64522C7 8.64522 7.96758 8.91242 8.5 10.1452C8.5 10.1452 9.5 7.14522 11.5 6.14522" stroke="white" stroke-width="1.5" stroke-linecap="round" stroke-linejoin="round"/>
</svg>