<svg width="25" height="24" viewBox="0 0 25 24" fill="none" xmlns="http://www.w3.org/2000/svg">
<path d="M6.58938 14.9992C6.21097 14.1486 6 13.2023 6 12.2051C6 8.50154 8.91015 5.49921 12.5 5.49921C16.0899 5.49921 19 8.50154 19 12.2051C19 13.2023 18.789 14.1486 18.4106 14.9992" stroke="white" stroke-width="1.5" stroke-linecap="round"/>
<path d="M12.5 1.99921V2.99921" stroke="white" stroke-width="1.5" stroke-linecap="round" stroke-linejoin="round"/>
<path d="M22.5 11.9992H21.5" stroke="white" stroke-width="1.5" stroke-linecap="round" stroke-linejoin="round"/>
<path d="M3.5 11.9992H2.5" stroke="white" stroke-width="1.5" stroke-linecap="round" stroke-linejoin="round"/>
<path d="M19.5704 4.92792L18.8633 5.63503" stroke="white" stroke-width="1.5" stroke-linecap="round" stroke-linejoin="round"/>
<path d="M6.1368 5.636L5.42969 4.92889" stroke="white" stroke-width="1.5" stroke-linecap="round" stroke-linejoin="round"/>
<path d="M15.017 19.3056C16.0274 18.9788 16.4326 18.054 16.5466 17.1238C16.5806 16.8459 16.352 16.6154 16.072 16.6154L8.97686 16.6156C8.68726 16.6156 8.45468 16.8614 8.48926 17.1489C8.60091 18.0773 8.88271 18.7555 9.95346 19.3056M15.017 19.3056C15.017 19.3056 10.1297 19.3056 9.95346 19.3056M15.017 19.3056C14.8955 21.2506 14.3338 22.0209 12.5068 21.9993C10.5526 22.0354 10.103 21.0833 9.95346 19.3056" stroke="white" stroke-width="1.5" stroke-linecap="round" stroke-linejoin="round"/>
</svg>
