<svg xmlns="http://www.w3.org/2000/svg" width="24" height="24" viewBox="0 0 24 24" fill="none">
  <path d="M12 22C17.5228 22 22 17.5228 22 12C22 6.47715 17.5228 2 12 2C6.47715 2 2 6.47715 2 12C2 17.5228 6.47715 22 12 22Z" stroke="white" stroke-width="1.5" stroke-linecap="round" stroke-linejoin="round"/>
  <path d="M16 15.6L15.7307 15.4C15.0125 14.8667 14.1672 14.8667 13.4491 15.4L13.1798 15.6C12.4616 16.1333 11.6163 16.1333 10.8982 15.6L10.6288 15.4C9.91069 14.8667 9.06539 14.8667 8.34723 15.4L8 15.6579" stroke="white" stroke-width="1.5" stroke-linecap="round" stroke-linejoin="round"/>
  <path d="M8 7.5L10 9.5L7.79297 10.6652" stroke="white" stroke-width="1.5" stroke-linecap="round" stroke-linejoin="round"/>
  <path d="M16.293 7.5L14.293 9.5L16.5 10.6652" stroke="white" stroke-width="1.5" stroke-linecap="round" stroke-linejoin="round"/>
</svg>